<?xml version="1.0" encoding="UTF-8"?>
<svg xmlns="http://www.w3.org/2000/svg" viewBox="0 0 1046.23 2306.76">

            <path 
                stroke="red"

            class="cls-1" d="M615.42,1974.49c37.63,50.78,80.22,97.84,126.88,140.46,24.96,22.8,51.09,44.36,77.95,64.88,28.3,21.61,57.81,41.86,89.44,58.32,10.03,5.22,20.34,9.56,30.6,14.27,9.26,4.25,19.23,9.14,26.14,16.84,6.49,7.23,6.81,16.85.58,24.5-6.32,7.76-17.39,8.03-26.51,6.84-11.51-1.51-22.63-5.54-33.37-9.81-9.73-3.87-19.45-7.79-29.15-11.73-30.9-12.57-60.07-29.15-87.57-47.98-27.9-19.1-54.1-40.59-79.03-63.41-24.43-22.36-48.01-45.89-70.07-70.59-43.85-49.09-79.84-104.86-108.96-163.8-10.64-21.53-20.34-43.5-29.23-65.8-.97,1.39-1.96,2.76-2.98,4.12,2.98,7.46,6.06,14.88,9.23,22.26,26.57,61.79,60.04,120.8,101.57,173.8,20.75,26.48,43.68,51.07,67.52,74.79,24.43,24.3,49.99,47.52,77.13,68.77,27,21.14,55.53,40.43,85.98,56.27,14.73,7.66,29.87,14.53,45.42,20.38,9.29,3.49,18.31,7.65,27.64,11.03,16.52,6,46.73,15.93,58.22-3.82,12.27-21.09-10.67-36.92-27.18-45.03-9.37-4.6-19.11-8.36-28.44-13.03-16.58-8.29-32.59-17.69-48.13-27.78-30.62-19.89-59.49-42.43-87.56-65.75-50.3-41.81-96.66-88.36-137.75-139.26-22.63-28.03-43.65-57.33-63.08-87.65-2.84-1.68-5.64-3.41-8.4-5.2,13.57,21.58,27.91,42.66,43.09,63.14Z"/>
            <path     stroke="green"
 class="cls-2" d="M511.4,1853.86c-2.41,4.72-5.2,9.24-8.26,13.62,8.89,22.29,18.59,44.26,29.23,65.8,29.12,58.94,65.11,114.71,108.96,163.8,22.07,24.7,45.65,48.23,70.07,70.59,24.93,22.82,51.13,44.31,79.03,63.41,27.5,18.83,56.67,35.41,87.57,47.98,9.7,3.94,19.42,7.86,29.15,11.73,10.73,4.27,21.86,8.3,33.37,9.81,9.11,1.19,20.19.93,26.51-6.84,6.22-7.65,5.91-17.27-.58-24.5-6.91-7.7-16.89-12.6-26.14-16.84-10.26-4.71-20.57-9.05-30.6-14.27-31.62-16.46-61.14-36.71-89.44-58.32-26.86-20.52-52.99-42.08-77.95-64.88-46.67-42.62-89.25-89.68-126.88-140.46-15.18-20.48-29.53-41.57-43.09-63.14-23.54-15.29-44.3-34.73-60.94-57.49Z"/>
            <path     stroke="green"
 d="M981.01,1528.46c7.08-7.17,15.14-14.16,19.81-23.22,9.15-17.73,15.74-36.59,20.81-55.86,10.04-38.21,14.41-77.7,19.42-116.81,4.98-38.83,10.27-81.53-4.25-119-.73-1.89-2.66-3.24-4.68-3.01-23.75,2.79-28.11,35.25-50.69,40.83,1.31-6.57,4.82-12.44,7.29-18.77,3.56-9.12,5.65-18.9,7.4-28.51,3.31-18.16,5.35-36.61,7.57-54.93,4.76-39.4,8.29-79.01,8.34-118.73.09-68.53-14.95-134.92-35.11-200.05-7.5-24.24-15.9-55.61-36.59-72.24-1.63-1.31-3.5-1.98-5.11-.28-8.17,8.6-12.93,21.34-19.52,31.17-3.7,5.52-22.58,30.51-22.66,10.95-.03-8.54,1.95-16.9,2.8-25.35,1.34-13.26.91-26.96.31-40.25-1.26-28.1-6.07-55.6-12.07-83.04-11.33-51.8-26.07-103.33-48.75-151.4-10.9-23.11-23.63-44.72-40.24-64.21-16.48-19.34-35.13-36.77-53.86-53.89-40.29-36.83-84.04-69.14-137.87-82.32-3.25-.8-3.74,2.35-2.57,4.65-.88.1-1.46.87-.86,2.41,5.31,13.54,5.18,28.12,4.61,42.44-6.69-4.15-12.31-10.56-17.16-16.48-6.26-7.65-11.88-15.83-17.07-24.24-12.22-19.75-22.8-40.87-32.06-62.15-10.31-23.69-18.2-48.29-22.66-73.76-4.59-26.16-5.87-52.76-5.65-79.28.24-29.5,2.36-58.93,4.05-88.37.15-2.62-2.93-5.89-5.57-4.41-77.34,43.43-145.05,102.1-199.63,172.03-38.96,49.92-71.12,105.52-94,164.66-.34.14-.67.35-.94.75-4.16,5.92-5.89,14.15-8.02,21-2.11,6.81-4,13.71-5.42,20.69-2.27,11.17-2.74,22.3-3.54,33.61-.13,1.88-.29,3.76-.61,5.61-.23,1.37-1.09,3.04-1.14,4.37-.38-.42-.8-.84-.96-1.08-.87-1.29-1.61-2.65-2.3-4.04-5.69-11.62-5.67-25.86-13.49-36.49-.77-1.05-3.01-2.79-4.35-1.51-.33.31-.64.6-.96.91.11-.4.23-.79.35-1.19-14.06,8.99-24.02,23.38-32.03,37.71-9.21,16.47-16.35,34.04-23.11,51.63-7.11,18.5-14.63,36.86-21.48,55.46-9.15,24.84-17.02,50.14-23.81,75.73-11.97,45.06-20.45,90.97-27.34,137.06-6.12,40.94-10.6,82.44-9.08,123.88.74,20.11,2.86,40.28,7.33,59.93-1.08-2.55-2.42-4.97-4.56-6.99-3.57-3.38-8.92-6.28-13-2.08-4.83,4.97-5.62,14.1-7.08,20.51-2.36,10.37-4.7,20.72-6.59,31.19-7.83,43.35-10.65,87.43-11.73,131.41-2.25,91.59-1.34,184.25,13.01,274.91,3.56,22.53,7.54,45.21,12.59,67.46,3.74,16.46,8.79,32.86,16.85,47.72-4.19-3.86-8.35-7.73-13.31-10.7-1.33-.8-2.69-.55-3.34.9-6.51,14.41-3.34,30.99-1.17,46.02,2.67,18.45,3.84,37.08,6.47,55.54,4.94,34.74,17.56,67.38,36.81,96.72,4.99,7.6,10.45,14.65,16.85,21.11,4.82,4.86,9.8,9.59,14.53,14.54-6.15-2.33-12.5-5.09-18.67-3.07-6.69,2.2-8.09,9.7-7.68,15.84,1.1,16.33,9.79,32.45,17.18,46.7,8.3,16.01,16.52,32.13,26.06,47.43,12.34,19.8,26.6,38.44,42.67,55.37,31.88,33.57,71.59,60.24,116.27,73.26,43.96,12.81,91.71,15.56,134.86-1.74,24.41-9.79,46.08-25.12,64.51-43.78,8.63-8.74,17.31-17.87,24.74-27.77-.99-2.48-1.97-4.96-2.94-7.45-5.9,8.04-12.54,15.6-19.53,22.8-15.91,16.39-33.35,31.09-53.62,41.82-38.76,20.51-83.14,23.14-125.58,14.59-44.32-8.92-84.63-29.77-118.21-59.95-32.14-28.88-56.25-64-76.14-102.09-7.64-14.64-16.01-29.09-21.11-44.88-1.85-5.73-5.07-15.1-1.39-20.76,5.14-7.93,20.77,1.73,27.81,2.57,3.36.4,2.04-4.11.83-5.46-10.83-12.07-24.05-21.67-33.44-35.06-9.61-13.7-17.72-28.49-24.25-43.89-6.67-15.73-11.39-32.02-14.15-48.88-2.86-17.46-4.1-35.12-6.12-52.68-1.92-16.7-6.94-34.8-1.27-51.17,7.22,4.73,13,11.28,20.13,16.19,2.43,1.67,3.61-1.55,2.32-3.35-21.61-30.19-25.37-70.13-31.6-105.72-7.65-43.75-12-87.97-14.12-132.31-2.06-43.09-2.11-86.26-1.59-129.39.5-41.89,2.07-83.82,7.19-125.42,2.78-22.66,7.16-44.88,12.15-67.13.81-3.61,3.05-20.64,9.4-16.53,3.81,2.46,5.03,7.17,6.49,11.16,1.48,4.03,3.16,7.64,5.98,10.9.67.78,1.31,1.09,1.88,1.16.27.84.59,1.66.88,2.5,3.57,4.22,7.02,8.55,10.39,12.94-3.22-7.85-5.93-15.91-8.17-24.09-5.27-19.29-8-39.22-9.14-59.16-2.31-40.42,1.31-81.01,6.9-121.02,6.14-44.01,13.97-87.93,24.62-131.09,6.2-25.14,13.39-50.05,21.76-74.57,6.92-20.27,15.15-39.99,22.75-59.99,7.25-19.09,14.39-38.31,23.74-56.5,6.92-13.47,15.26-27.4,26.8-37.58.12-.41.24-.82.36-1.23,1.69-1.03,3.39-2.03,5.09-3.01,3.7,9.39,5.33,19.4,9.16,28.77,1.75,4.28,7.58,17.79,14.48,14.45,4.96-2.4,4.68-12.24,5-16.76.72-10.27,1.35-20.36,3.44-30.48,1.01-4.89,2.27-9.73,3.61-14.53.16.43.33.86.49,1.29,7.5-22.96,16.37-45.49,26.63-67.39,37.31-79.62,91.34-151.49,156.49-210.44,34.37-31.1,72.16-59.18,112.38-82.36-3.12,52.11-6.91,104.68,1.32,156.5,8.02,50.52,29.37,98.76,55.68,142.36,5.94,9.84,12.44,19.4,19.82,28.22,6.76,8.08,14.29,15.95,23.92,20.55,1.76.84,3.39-.7,3.46-2.41.73-16.92.9-33.85-7.31-49.09,50.61,12.55,92.74,43.46,130.78,77.95,19.63,17.79,39.31,35.94,56.45,56.18,18.19,21.48,31.49,45.83,42.84,71.48,22.75,51.4,37.08,106.27,47.94,161.29,5.95,30.13,8.53,60.9,7.24,91.61-.38,8.95-2.29,17.68-3.07,26.59-.58,6.65-1.23,14.98,3.66,20.3,18.07,19.7,39.92-30.96,49.97-45.39,16.46,15.65,23.63,42.7,30.04,63.38,8.75,28.24,17,56.69,22.98,85.66,7.31,35.42,11.79,71.54,12.13,107.73.36,38.11-2.64,76.18-6.91,114.02-2.41,21.4-4.6,43.03-8.5,64.22-1.76,9.56-3.86,19.31-7.54,28.33-3.35,8.2-7.7,15.64-7.48,24.75.04,1.86,1.73,4.93,4.01,4.75,12.92-1.04,21.94-8.26,29.89-18.02,6.75-8.29,13.05-19.38,23.75-22.53,12.64,35.86,6.86,77.13,2.22,113.9-5.43,43.06-10.03,86.65-22.83,128.29-4.95,16.09-10.11,35.55-20.99,48.74-8.04,9.76-17.24,18.54-25.63,28-8.6,9.69-29.01,34.38-5.27,39.87,12.95,2.99,25.88-5.94,35.64-13.27,9.47-7.11,17.75-15.49,26.43-23.48,15.17,47.93,5.33,100.72-12.36,146.63-18.78,48.74-47.61,94.48-89.21,126.78-11.82,9.17-24.55,18.28-38.04,24.82-15.65,7.59-33.1,10.88-49.37,16.88-1.63.6-.9,2.49-.07,3.45,10.65,12.39,27.88,12.45,42.91,11.26,15.42-1.21,32.57-5.78,48.2-3.14-38.37,49.15-101.45,68.89-161.56,74.99-63.67,6.46-130.22.45-185.9-33.2,1.51,2.39,3.02,4.79,4.55,7.17,22.18,13.12,46.55,22.67,72.09,27.95,31.84,6.59,65.31,7.15,97.66,4.96,33.18-2.25,66.45-8.12,97.56-20.09,32.66-12.57,63.26-32.2,83.59-61.2,1.25-1.78-.45-4.74-2.34-5.27-14.51-4.05-30.4-.65-45.02,1.16-14.68,1.81-34.74,5.07-47.23-5.02,13.66-5.46,28.33-7.76,42.19-12.71,13.43-4.79,25.61-12.66,37.27-20.74,22.95-15.91,43.24-35.23,59.24-58.17,30.19-43.29,52.08-95.01,58.34-147.59,3.43-28.85,1.49-58.22-8.77-85.55-.52-1.39-3.2-3.88-4.83-2.37-7.88,7.32-15.32,15.07-23.53,22.04-9.31,7.9-20.62,17.32-32.97,19.75-4.46.88-12.84.31-14.44-5.05-1.25-4.21,4-10.28,6.3-13.18,7.59-9.59,16.58-18.31,25.17-27Z"/>
            <path     stroke="green"
 d="M500.19,1859.97c-.97,1.41-1.96,2.8-2.98,4.18.97,2.49,1.95,4.97,2.94,7.45,1.02-1.36,2.01-2.73,2.98-4.12-1-2.5-1.97-5-2.95-7.5Z"/>
            <path     stroke="green"
 d="M573.73,1907.9c-2.02-1.25-4-2.55-5.97-3.87,1.51,2.45,3.04,4.88,4.57,7.31,2.76,1.79,5.56,3.53,8.4,5.2-1.53-2.38-3.04-4.77-4.55-7.17-.82-.49-1.64-.97-2.45-1.48Z"/>
            <path     stroke="green"
 d="M512.5,1851.61c.21-.44.39-.9.6-1.34-1.26-.78-2.56-1.64-3.81-2.57-1.07,1.25-2.22,2.48-3.52,3.52-1.75,2.99-3.62,5.9-5.58,8.76.97,2.5,1.95,5.01,2.95,7.5,3.05-4.37,5.84-8.9,8.26-13.62,16.63,22.76,37.4,42.2,60.94,57.49-1.53-2.43-3.06-4.87-4.57-7.31-21.32-14.26-39.82-32.1-55.26-52.42Z"/>
            <path     stroke="green"
 class="cls-2" d="M990.42,1509.78c10.88-13.19,16.04-32.65,20.99-48.74,12.81-41.64,17.4-85.23,22.83-128.29,4.64-36.77,10.42-78.04-2.22-113.9-10.71,3.15-17,14.24-23.75,22.53-7.95,9.76-16.97,16.98-29.89,18.02-2.28.18-3.97-2.89-4.01-4.75-.22-9.11,4.13-16.55,7.48-24.75,3.69-9.02,5.79-18.77,7.54-28.33,3.9-21.19,6.08-42.82,8.5-64.22,4.27-37.84,7.26-75.91,6.91-114.02-.34-36.19-4.82-72.31-12.13-107.73-5.98-28.97-14.23-57.42-22.98-85.66-6.41-20.69-13.58-47.73-30.04-63.38-10.05,14.43-31.91,65.09-49.97,45.39-4.89-5.33-4.24-13.65-3.66-20.3.78-8.91,2.69-17.64,3.07-26.59,1.29-30.7-1.29-61.47-7.24-91.61-10.86-55.02-25.19-109.89-47.94-161.29-11.35-25.65-24.65-50-42.84-71.48-17.14-20.24-36.83-38.39-56.45-56.18-38.04-34.49-80.17-65.39-130.78-77.95,8.21,15.25,8.04,32.18,7.31,49.09-.07,1.71-1.7,3.25-3.46,2.41-9.63-4.6-17.15-12.47-23.92-20.55-7.38-8.82-13.89-18.38-19.82-28.22-26.31-43.6-47.66-91.84-55.68-142.36-8.23-51.82-4.44-104.39-1.32-156.5-40.23,23.18-78.01,51.26-112.38,82.36-65.15,58.95-119.18,130.83-156.49,210.44-10.26,21.9-19.14,44.43-26.63,67.39-.16-.43-.33-.86-.49-1.29-1.35,4.81-2.6,9.64-3.61,14.53-2.1,10.12-2.72,20.21-3.44,30.48-.32,4.52-.04,14.36-5,16.76-6.9,3.34-12.73-10.17-14.48-14.45-3.84-9.37-5.46-19.38-9.16-28.77-1.7.99-3.41,1.98-5.09,3.01-.12.41-.24.82-.36,1.23-11.54,10.19-19.87,24.12-26.8,37.58-9.35,18.19-16.5,37.4-23.74,56.5-7.59,20.01-15.83,39.73-22.75,59.99-8.37,24.51-15.55,49.42-21.76,74.57-10.65,43.15-18.48,87.07-24.62,131.09-5.58,40.02-9.21,80.6-6.9,121.02,1.14,19.94,3.87,39.87,9.14,59.16,2.23,8.18,4.95,16.24,8.17,24.09-3.37-4.39-6.82-8.72-10.39-12.94-.28-.84-.6-1.66-.88-2.5-.57-.08-1.21-.39-1.88-1.16-2.83-3.26-4.5-6.87-5.98-10.9-1.47-3.99-2.69-8.69-6.49-11.16-6.35-4.11-8.59,12.92-9.4,16.53-4.99,22.26-9.36,44.47-12.15,67.13-5.11,41.61-6.69,83.53-7.19,125.42-.52,43.13-.46,86.3,1.59,129.39,2.12,44.34,6.47,88.56,14.12,132.31,6.23,35.59,9.99,75.53,31.6,105.72,1.29,1.8.11,5.02-2.32,3.35-7.13-4.9-12.91-11.45-20.13-16.19-5.67,16.37-.65,34.47,1.27,51.17,2.02,17.56,3.26,35.22,6.12,52.68,2.76,16.86,7.48,33.15,14.15,48.88,6.53,15.4,14.64,30.19,24.25,43.89,9.39,13.39,22.6,22.99,33.44,35.06,1.21,1.35,2.54,5.86-.83,5.46-7.04-.84-22.66-10.5-27.81-2.57-3.68,5.67-.46,15.03,1.39,20.76,5.11,15.79,13.47,30.24,21.11,44.88,19.89,38.09,44,73.21,76.14,102.09,33.58,30.18,73.89,51.03,118.21,59.95,42.44,8.54,86.82,5.91,125.58-14.59,20.28-10.73,37.71-25.42,53.62-41.82,7-7.21,13.63-14.76,19.53-22.8,1.01-1.38,2.01-2.77,2.98-4.18,1.96-2.86,3.84-5.77,5.58-8.76,1.3-1.04,2.44-2.27,3.52-3.52,1.25.94,2.55,1.79,3.81,2.57-.21.44-.39.9-.6,1.34,15.44,20.32,33.95,38.16,55.26,52.42,1.97,1.32,3.95,2.61,5.97,3.87.81.51,1.63.98,2.45,1.48,55.68,33.65,122.24,39.66,185.9,33.2,60.11-6.1,123.19-25.84,161.56-74.99-15.63-2.64-32.79,1.93-48.2,3.14-15.03,1.18-32.27,1.13-42.91-11.26-.82-.96-1.56-2.85.07-3.45,16.27-6,33.72-9.29,49.37-16.88,13.49-6.54,26.22-15.65,38.04-24.82,41.6-32.3,70.43-78.04,89.21-126.78,17.69-45.91,27.53-98.7,12.36-146.63-8.68,7.99-16.96,16.37-26.43,23.48-9.76,7.33-22.69,16.26-35.64,13.27-23.73-5.49-3.33-30.18,5.27-39.87,8.39-9.46,17.58-18.24,25.63-28Z"/>
       
          <path     stroke="green"
 class="cls-4" d="M126.47,1566.95c30.29,25.98,62.79,49.39,96.9,70.09,16.27,9.87,32.92,19.12,49.94,27.63,20.28,10.13,40.6,20.2,61.37,29.29,39.59,17.33,81.73,31.65,125.25,33.08-4.1-2.06-8.23-4.03-12.46-5.81-25.82-10.88-53.23-17.25-79.79-25.96-27.11-8.88-52.76-21.52-77.91-34.89-49.54-26.33-97.28-56.78-139.99-93.26-38.51-32.89-73.24-70.08-103.9-110.38-6.17-8.12-12.13-16.39-17.97-24.75,4.45,19.41,10.87,38.2,22.35,54.22.75,1.05.64,2.55-.04,3.32,23,28.04,48.74,53.81,76.25,77.41Z"/>
          <path    stroke="green"
 class="cls-4" d="M144.3,672.05c18.28,34.74,39.27,68.7,62.03,101.07,11.47,16.31,23.73,32.4,36.22,48.01,12.12,15.16,24.35,30.38,37.03,45.07,23.67,27.42,49.3,52.75,81.34,70.82-1.79-2.78-3.48-5.54-5.43-8.23-12.99-17.9-27.96-33.92-43.18-50.06-7.72-8.19-15.55-16.41-22.96-24.92-7.4-8.51-14.33-17.39-21.1-26.42-29.16-38.94-56.87-79.33-81.58-121-23.62-39.83-44.65-80.6-63.11-122.68-9.28-21.16-17.21-41.92-25.11-63.49-1.99,6.19-4,12.31-5.85,18.52-.63,2.11-1.19,4.24-1.81,6.34,2.27,6.87,4.32,13.47,6.76,20.29,13.13,36.68,28.44,71.94,46.72,106.68Z"/>
          <path    stroke="green"
 class="cls-4" d="M832.52,503.06s-55.95,115.89-90.16,170.39c-24.21,38.58-50.45,75.91-79.67,110.87-28.2,33.74-58.91,65.34-91.44,94.93-56.2,51.12-108.18,89.89-171.84,131.26,24.57-1.56,44.61-6.82,66.55-17.44,28.47-13.78,49.5-28.85,74.69-47.9,51.82-39.18,100.09-83.75,144.37-131.22,49.04-52.58,93.01-110.24,127.61-173.37,17.37-31.7,39.13-95.27,39.13-95.27l-19.24-42.24Z"/>
          <path     stroke="green"
class="cls-4" d="M99.78,1179.14c28.16,33.27,58.93,64.49,91.89,93.28,30.3,26.47,62.7,51.12,97.03,72.43,18.48,11.47,37.71,21.99,57.94,30.24,16.85,6.87,34.57,12.26,52.78,14.25-3.68-2.51-7.37-5.03-11.06-7.54-42.29-28.71-84.97-56.97-125.21-88.4-40.27-31.45-77.12-66.33-109.92-105.2-31.82-37.72-60.26-78.16-85-120.62-20.01-34.34-37.58-70.05-52.37-106.83-2.13,11.31-3.98,22.67-5.43,34.14-1.78,14.08-3.12,28.2-4.19,42.35,4.95,10.52,10.27,20.87,15.91,31.02,21.87,39.42,48.41,76.33,77.65,110.86Z"/>
          <path     stroke="blue"
class="cls-4" d="M778.79,1334.33c-48.49,75.07-103.76,145.76-168.3,207.27-32.52,30.99-67.16,59.74-103.89,85.44-14.42,10.09-28.99,19.81-44.5,28.08-3.9,2.08,1.71,1.01-2.19,3.08,26.86-5.82,43.13-14.18,66.84-28.09,37.58-22.05,71.1-50.42,103.13-79.97,68.2-62.92,128.34-134.7,181.6-210.96,24.14-34.57,47.52-69.97,68.01-106.92,20.1-36.25,37.63-73.97,52.79-112.61,25.92-66.1,50.94-137.9,63.21-207.98-2.13-14.79-12.87-50.36-13.59-53.51-18.25,79.82-47.25,160.38-78.25,235.95-34.34,83.7-75.88,164.38-124.87,240.21Z"/>
          <path     stroke="yellow"
class="cls-3" d="M500.22,1849.37c-39.91-107.44-61.16-210.6-79.41-323.78-32.67-199.81-62.2-401.72-59.74-603.5,2.85-233.74,24.93-470.33,72.2-698.08,7.26-34.96,16.87-72.39,26.32-107.46.9-3.35,2.71-9.63,3.67-13.32-19.44,103.95-33.34,207.92-43.78,313.36-3.07,31.02-5.66,64.25-8.36,95.15-15.02,172.47-23.74,346.19-19.2,519.04,6.23,224.68,33.59,491.09,81.27,711.44,7.24,33.47,17.71,73,27.02,107.14.1.24,0,0,0,0Z"/>
          <path     stroke="red"
class="cls-2" d="M990.42,1508.79c10.88-13.19,16.04-32.65,20.99-48.74,12.81-41.64,17.4-85.23,22.83-128.29,4.64-36.77,10.42-78.04-2.22-113.9-10.71,3.15-17,14.24-23.75,22.53-7.95,9.76-16.97,16.98-29.89,18.02-2.28.18-3.97-2.89-4.01-4.75-.22-9.11,4.13-16.55,7.48-24.75,3.69-9.02,5.79-18.77,7.54-28.33,3.9-21.19,6.08-42.82,8.5-64.22,4.27-37.84,7.26-75.91,6.91-114.02-.32-34.31-4.37-68.56-11.02-102.21-12.79,67.08-36.72,135.41-61.48,198.55-15.15,38.65-32.68,76.36-52.79,112.61-20.49,36.95-43.87,72.35-68.01,106.92-53.26,76.26-113.4,148.04-181.6,210.96-32.03,29.55-65.55,57.92-103.13,79.97-23.59,13.84-43.29,22.4-69.96,28.22-.09.09-.21.14-.36.17,5.27,28.5,10.86,56.47,16.76,83.72,7.24,33.47,21.25,78.13,30.56,112.26.68-1.09,1.36-2.18,2.01-3.28h0c1.26-1.01,2.37-2.19,3.42-3.41.03-.04.07-.07.1-.11h0c1.25.94,2.55,1.79,3.81,2.57-.21.44-.39.9-.6,1.34,15.44,20.32,33.95,38.16,55.26,52.42,1.97,1.32,3.95,2.61,5.97,3.87.81.51,1.63.98,2.45,1.48,55.68,33.65,122.24,39.66,185.9,33.2,54.47-5.53,111.39-22.26,150.14-61.93,4.01-4.1,7.82-8.45,11.42-13.06-15.63-2.64-32.79,1.93-48.2,3.14-15.03,1.18-32.27,1.13-42.91-11.26-.72-.84-1.37-2.39-.43-3.17.13-.11.3-.21.51-.28,16.27-6,33.72-9.29,49.37-16.88,13.49-6.54,26.22-15.65,38.04-24.82,7.8-6.06,15.15-12.59,22.07-19.52,29.99-30.04,51.88-67.66,67.14-107.26,17.69-45.91,27.53-98.7,12.36-146.63-1.01.93-2.01,1.86-3.01,2.8-1.22,1.14-2.43,2.28-3.64,3.42-3.05,2.87-6.1,5.74-9.23,8.53-3.4,3.04-6.88,5.98-10.55,8.73-9.76,7.33-22.69,16.26-35.64,13.27-23.73-5.49-3.33-30.18,5.27-39.87,8.39-9.46,17.58-18.24,25.63-28Z"/>
        
 
</svg>