<?xml version="1.0" encoding="UTF-8"?>
<svg id="Layer_2" xmlns="http://www.w3.org/2000/svg" version="1.1" viewBox="0 0 1480.8 2347.1">
  <!-- Generator: Adobe Illustrator 29.1.0, SVG Export Plug-In . SVG Version: 2.1.0 Build 142)  -->

  <path id="petoile" d="M717.3,1899.8c-2.4,4.7-5.2,9.2-8.3,13.6,8.9,22.3,18.6,44.3,29.2,65.8,29.1,58.9,65.1,114.7,109,163.8,22.1,24.7,45.7,48.2,70.1,70.6,24.9,22.8,51.1,44.3,79,63.4,27.5,18.8,56.7,35.4,87.6,48,9.7,3.9,19.4,7.9,29.2,11.7,10.7,4.3,21.9,8.3,33.4,9.8,9.1,1.2,20.2.9,26.5-6.8,6.2-7.6,5.9-17.3-.6-24.5-6.9-7.7-16.9-12.6-26.1-16.8-10.3-4.7-20.6-9.1-30.6-14.3-31.6-16.5-61.1-36.7-89.4-58.3-26.9-20.5-53-42.1-78-64.9-46.7-42.6-89.2-89.7-126.9-140.5-15.2-20.5-29.5-41.6-43.1-63.1-23.5-15.3-44.3-34.7-60.9-57.5h0,0Z"/>
     <path id="blade" class="cls-2" d="M684.58,791.69c-44.28,47.47-92.55,92.04-144.37,131.22-25.19,19.05-46.22,34.12-74.69,47.9-18.16,8.79-50.07,16.71-74.45,20.06.12,5.89.26,11.77.41,17.65,5.43,195.92,26.94,423.58,63.97,624.75,15.42-8.17,36.72-18.7,50.71-28.49,36.73-25.7,71.37-54.45,103.89-85.44,64.54-61.51,119.81-132.2,168.3-207.27h0c48.99-75.84,90.53-156.52,124.87-240.22,31-75.57,49.79-146.59,68.04-226.41.11.5.75,1.59,1.73,3.11-2.8-9.71-5.72-19.38-8.71-29.03-6.41-20.69-13.58-47.73-30.04-63.38-10.05,14.43-31.91,65.09-49.97,45.39-4.89-5.33-4.24-13.65-3.66-20.3.78-8.91,2.69-17.64,3.07-26.59,1.29-30.7-1.29-61.47-7.24-91.61-7.84-39.74-17.52-79.4-30.85-117.73-.49,1.27-16.29,41.82-33.39,73.02-34.6,63.13-78.57,120.79-127.61,173.37Z"/>
      <path id="blade"  class="cls-3" d="M152.79,1165.94c32.8,38.87,69.65,73.75,109.92,105.2,40.24,31.43,82.92,59.69,125.21,88.4,3.69,2.51,7.26,1.92,10.93,4.42-21.93-147.83-38.49-293.7-38.35-442.1-30.39-18.68-58.77-51.76-81.36-77.93-12.68-14.69-24.91-29.91-37.03-45.07-12.49-15.61-24.75-31.7-36.22-48.01-22.76-32.37-43.75-66.33-62.03-101.07h-.03c-18.28-34.74-33.59-70-46.72-106.68-2.43-6.79-1.86-6.04-4.09-12.81-.64,1.82-1.29,3.63-1.91,5.46-8.37,24.51-15.55,49.42-21.76,74.57-10.65,43.15-18.48,87.07-24.62,131.09-5.58,40.02-9.21,80.6-6.9,121.02,1.14,19.94,3.87,39.87,9.14,59.16,2.23,8.18,4.95,16.24,8.17,24.09-3.37-4.39-6.82-8.72-10.39-12.94-.28-.84-.6-1.66-.88-2.5-.57-.08-1.21-.39-1.88-1.16-2.83-3.26-4.5-6.87-5.98-10.9-1.47-3.99-2.69-8.69-6.49-11.16-6.35-4.11-8.59,12.92-9.4,16.53-1.29,5.76-2.54,11.52-3.73,17.29,14.59,35.95,31.83,70.86,51.41,104.47,24.74,42.46,53.18,82.9,85,120.62Z"/>
      <path id="blade"  class="cls-4"  d="M105.5,499.63c7.9,21.57,8.33,40.65,17.61,61.81,18.46,42.08,39.49,82.85,63.11,122.68,24.71,41.67,52.42,82.06,81.58,121,6.77,9.03,13.7,17.91,21.1,26.42,7.41,8.51,15.24,16.73,22.96,24.92,15.22,16.14,30.19,32.16,43.18,50.06,1.05,1.45,3.31,5.76,5.46,9.84.02-5.51.06-11.03.12-16.54,2.85-233.74,24.93-470.33,72.2-698.08,7.26-34.96,16.87-72.39,26.32-107.46.9-3.35,2.71-9.63,3.67-13.32-19.44,103.95-33.34,207.92-43.78,313.36-3.07,31.02-5.66,64.25-8.36,95.15-14.29,164.11-22.87,329.35-19.76,493.89,60.31-38.62,127.74-78.94,179.89-126.38,32.53-29.59,63.24-61.19,91.44-94.93,29.22-34.96,55.46-72.29,79.67-110.87,34.21-54.5,83.2-155.88,83.2-155.88l20.32,49.6c-5.09-14.6-10.69-29.02-16.95-43.17-11.35-25.65-24.65-50-42.84-71.48-17.14-20.24-36.83-38.39-56.45-56.18-38.04-34.49-80.17-65.39-130.78-77.95,8.21,15.25,8.04,32.18,7.31,49.09-.07,1.71-1.7,3.25-3.46,2.41-9.63-4.6-17.15-12.47-23.92-20.55-7.38-8.82-13.89-18.38-19.82-28.22-26.31-43.6-47.66-91.84-55.68-142.36-4.52-28.46-5.41-57.15-4.78-85.86l-66.98-23.34c-14.46,11.15-28.47,22.87-41.94,35.06-65.15,58.95-119.18,130.83-156.49,210.44-10.26,21.9-19.14,44.43-26.63,67.39-.16-.43-.33-.86-.49-1.29-1.35,4.81-2.6,9.64-3.61,14.53-2.1,10.12-2.72,20.21-3.44,30.48-.32,4.52-.04,14.36-5,16.76-6.9,3.34-12.73-10.17-14.48-14.45-3.84-9.37-5.46-19.38-9.16-28.77-1.7.99-3.41,1.98-5.09,3.01-.12.41-.24.82-.36,1.23-11.54,10.19-19.87,24.12-26.8,37.58-9.35,18.19-16.5,37.4-23.74,56.5-6.53,17.21-13.53,34.2-19.77,51.51,1.05-2.58,2.47-5.82,2.9-7.26,1.85-6.21,6.53-14.2,8.52-20.39Z"/>
      <path id="blade"  class="cls-5" d="M1028.81,1322.33c4.64-36.77,10.42-78.04-2.22-113.9-10.71,3.15-17,14.24-23.75,22.53-7.95,9.76-16.97,16.98-29.89,18.02-2.28.18-3.97-2.89-4.01-4.75-.22-9.11,4.13-16.55,7.48-24.75,3.69-9.02,5.79-18.77,7.54-28.33,3.9-21.19,6.08-42.82,8.5-64.22,4.27-37.84,7.26-75.91,6.91-114.02-.3-32.15-3.88-64.24-9.79-95.84-13.39,61.16-35.22,122.89-57.74,180.31-15.16,38.64-32.69,76.36-52.79,112.61-20.49,36.95-43.87,72.35-68.01,106.92-53.26,76.26-113.4,148.04-181.6,210.96-32.03,29.55-65.55,57.92-103.13,79.97-22.6,13.26-44.66,24.4-69.93,30.45,5.16,27.78,10.62,55.06,16.37,81.66,7.24,33.45,17.7,72.95,27,107.07-15.13-40.73-27.57-80.84-38.18-121.11-42.28-2.38-89.21-17.53-127.33-34.22-20.77-9.09-41.09-19.16-61.37-29.29-17.02-8.51-33.67-17.76-49.94-27.63-34.11-20.7-66.61-44.11-96.9-70.09h0c-27.51-23.61-53.25-49.38-76.25-77.42.68-.77.79-2.27.04-3.32-11.48-16.02-17.9-34.81-22.35-54.22,5.84,8.36,11.8,16.63,17.97,24.75,30.66,40.3,65.39,77.49,103.9,110.38,42.71,36.48,90.45,66.93,139.99,93.26,25.15,13.37,50.8,26.01,77.91,34.89,26.56,8.71,53.97,15.08,79.79,25.96,2.93,1.23,9.13,3.2,14.03,4.99-17.12-65.3-29.47-131.07-40.69-200.63-7.41-45.32-14.65-90.74-21.4-136.25-18.21-1.99-35.92-7.38-52.77-14.25-20.23-8.25-39.46-18.77-57.94-30.24-34.33-21.31-66.73-45.96-97.03-72.43-32.96-28.79-63.73-60.01-91.89-93.28l.02-.02c-29.24-34.53-55.78-71.44-77.65-110.86-5.64-10.15-10.96-20.5-15.91-31.02.59-7.74,1.26-15.48,2.04-23.2-5.01,41.25-6.57,82.81-7.06,124.34-.52,43.13-.46,86.3,1.59,129.39,2.12,44.34,6.47,88.56,14.12,132.31,6.23,35.59,9.99,75.53,31.6,105.72,1.29,1.8.11,5.02-2.32,3.35-7.13-4.9-12.91-11.45-20.13-16.19-5.67,16.37-.65,34.47,1.27,51.17,2.02,17.56,3.26,35.22,6.12,52.68,2.76,16.86,7.48,33.15,14.15,48.88,6.53,15.4,14.64,30.19,24.25,43.89,9.39,13.39,22.6,22.99,33.44,35.06,1.21,1.35,2.54,5.86-.83,5.46-7.04-.84-22.66-10.5-27.81-2.57-3.68,5.67-.46,15.03,1.39,20.76,5.11,15.79,13.47,30.24,21.11,44.88,19.89,38.09,44,73.21,76.14,102.09,33.58,30.18,73.89,51.03,118.21,59.95,42.44,8.54,86.82,5.91,125.58-14.59,20.28-10.73,37.71-25.42,53.62-41.82,7-7.21,13.63-14.76,19.53-22.8,1.01-1.38,2.01-2.77,2.98-4.18,1.96-2.86,3.84-5.77,5.58-8.76,1.3-1.04,2.44-2.27,3.52-3.52,1.25.94,2.55,1.79,3.81,2.57-.21.44-.39.9-.6,1.34,15.44,20.32,33.95,38.16,55.26,52.42,1.97,1.32,3.95,2.61,5.97,3.87.81.51,1.63.98,2.45,1.48,55.68,33.65,122.24,39.66,185.9,33.2,60.11-6.1,123.19-25.84,161.56-74.99-15.63-2.64-32.79,1.93-48.2,3.14-15.03,1.18-32.27,1.13-42.91-11.26-.82-.96-1.56-2.85.07-3.45,16.27-6,33.72-9.29,49.37-16.88,13.49-6.54,26.22-15.65,38.04-24.82,41.6-32.3,70.43-78.04,89.21-126.78,17.69-45.91,27.53-98.7,12.36-146.63-8.68,7.99-16.96,16.37-26.43,23.48-9.76,7.33-22.69,16.26-35.64,13.27-23.73-5.49-3.33-30.18,5.27-39.87,8.39-9.46,17.58-18.24,25.63-28h-.01c10.88-13.19,16.04-32.65,20.99-48.74,12.81-41.64,17.4-85.23,22.83-128.29Z"/>
      <path id="blade"  class="cls-6" d="M92.99,530.21s.02.06.03.09c.36-1.01.71-2.02,1.07-3.02-.49,1.2-.9,2.27-1.1,2.93Z"/>
      <path id="blade"  class="cls-7" d="M845.59,545.27l-.15-.36c.05.13.09.26.14.39,0-.02.01-.03.01-.03Z"/>
      <path id="blade" class="cls-8" d="M16.38,940.85c-.32-.79-.65-1.57-.96-2.36-2.13,11.31-3.98,22.67-5.43,34.14-.81,6.37-1.51,12.76-2.15,19.15.04-.36.08-.72.13-1.08,2.07-16.79,5.01-33.34,8.42-49.84Z"/>
      <path id="blade" class="cls-9" d="M989.58,917.07c2.02-9.24,3.86-18.47,5.47-27.67-1.79-12.43-16.88-32.8-22.07-40.85,5.4,18.71,10.33,37.56,14.27,56.63.82,3.96,1.59,7.92,2.34,11.89Z"/> -->
 <path id="tip" d="M712.9,56.4c-24.5,14.1-48,30-70.4,47.3l67,23.3c.5-23.6,2.1-47.2,3.5-70.6Z"/>
  <path id="vien" d="M233.1,1102.4c21.9,39.4,48.4,76.3,77.7,110.9h0c28.2,33.3,58.9,64.5,91.9,93.3,30.3,26.5,62.7,51.1,97,72.4,18.5,11.5,37.7,22,57.9,30.2,16.9,6.9,34.6,12.3,52.8,14.2,6.8,45.5,14,90.9,21.4,136.2,11.2,69.6,23.6,135.3,40.7,200.6-4.9-1.8-11.1-3.8-14-5-25.8-10.9-53.2-17.2-79.8-26-27.1-8.9-52.8-21.5-77.9-34.9-49.5-26.3-97.3-56.8-140-93.3-38.5-32.9-73.2-70.1-103.9-110.4-6.2-8.1-12.1-16.4-18-24.8,4.4,19.4,10.9,38.2,22.4,54.2.8,1.1.6,2.6,0,3.3,23,28,48.7,53.8,76.3,77.4h0c30.3,26,62.8,49.4,96.9,70.1,16.3,9.9,32.9,19.1,49.9,27.6,20.3,10.1,40.6,20.2,61.4,29.3,38.1,16.7,85,31.8,127.3,34.2,10.6,40.3,23.1,80.4,38.2,121.1-9.3-34.1-19.8-73.6-27-107.1-5.8-26.6-11.2-53.9-16.4-81.7,25.3-6.1,47.3-17.2,69.9-30.4,37.6-22.1,71.1-50.4,103.1-80,68.2-62.9,128.3-134.7,181.6-211,24.1-34.6,47.5-70,68-106.9,20.1-36.2,37.6-74,52.8-112.6,22.5-57.4,44.3-119.2,57.7-180.3-.7-4-1.5-7.9-2.3-11.9-3.9-19.1-8.9-37.9-14.3-56.6-1-1.5-1.6-2.6-1.7-3.1-18.2,79.8-37,150.8-68,226.4-34.3,83.7-75.9,164.4-124.9,240.2h0c-48.5,75.1-103.8,145.8-168.3,207.3-32.5,31-67.2,59.7-103.9,85.4-14,9.8-35.3,20.3-50.7,28.5-37-201.2-58.5-428.8-64-624.8-.1-5.9-.3-11.8-.4-17.7,24.4-3.3,56.3-11.3,74.4-20.1,28.5-13.8,49.5-28.8,74.7-47.9,51.8-39.2,100.1-83.8,144.4-131.2,49-52.6,93-110.2,127.6-173.4,17.1-31.2,32.9-71.8,33.4-73,0-.1,0-.3-.1-.4l-20.3-49.6s-49,101.4-83.2,155.9c-24.2,38.6-50.5,75.9-79.7,110.9-28.2,33.7-58.9,65.3-91.4,94.9-52.2,47.4-119.6,87.8-179.9,126.4-3.1-164.5,5.5-329.8,19.8-493.9,2.7-30.9,5.3-64.1,8.4-95.1,10.4-105.4,24.3-209.4,43.8-313.4-1,3.7-2.8,10-3.7,13.3-9.5,35.1-19.1,72.5-26.3,107.5-47.3,227.8-69.4,464.3-72.2,698.1,0,5.5-.1,11-.1,16.5-2.1-4.1-4.4-8.4-5.5-9.8-13-17.9-28-33.9-43.2-50.1-7.7-8.2-15.5-16.4-23-24.9-7.4-8.5-14.3-17.4-21.1-26.4-29.2-38.9-56.9-79.3-81.6-121-23.6-39.8-44.7-80.6-63.1-122.7-9.3-21.2-9.7-40.2-17.6-61.8-2,6.2-6.7,14.2-8.5,20.4-.4,1.4-1.8,4.7-2.9,7.3-.4,1-.7,2-1.1,3,2.2,6.8,1.7,6,4.1,12.8,13.1,36.7,28.4,71.9,46.7,106.7h0c18.3,34.7,39.3,68.7,62,101.1,11.5,16.3,23.7,32.4,36.2,48,12.1,15.2,24.4,30.4,37,45.1,22.6,26.2,51,59.2,81.4,77.9-.1,148.4,16.4,294.3,38.4,442.1-3.7-2.5-7.2-1.9-10.9-4.4-42.3-28.7-85-57-125.2-88.4-40.3-31.4-77.1-66.3-109.9-105.2-31.8-37.7-60.3-78.2-85-120.6-19.6-33.6-36.8-68.5-51.4-104.5-3.4,16.5-6.4,33-8.4,49.8,0,.4,0,.7-.1,1.1-.8,7.7-1.4,15.5-2,23.2,4.9,10.5,10.3,20.9,15.9,31h0Z"/>
  <!-- <path d="M851.4,257.1c8.4-65.7-38.2-125.8-103.9-134.2l28.3-21.9c2.2-1.9,2.5-5.3.6-7.5-1.8-2.1-4.8-2.5-7.1-.9l-38.4,29.7c-2.3,1.8-2.8,5.1-1,7.5,0,0,0,0,0,0l29.7,38.4c1.8,2.3,5.1,2.8,7.5,1,2.3-1.8,2.8-5.1,1-7.5h0l-21.9-28.3c59.9,7.6,102.3,62.4,94.7,122.3-.4,2.9,1.7,5.6,4.6,6s5.6-1.7,6-4.6Z"/>
  <path d="M1390.5,1531.2c8.4-65.7-38.2-125.8-103.9-134.2l28.3-21.9c2.2-1.9,2.5-5.3.6-7.5-1.8-2.1-4.8-2.5-7.1-.9l-38.4,29.7c-2.3,1.8-2.8,5.1-1,7.5,0,0,0,0,0,0l29.7,38.4c1.8,2.3,5.1,2.8,7.5,1,2.3-1.8,2.8-5.1,1-7.5h0l-21.9-28.3c59.9,7.6,102.3,62.4,94.7,122.3-.4,2.9,1.7,5.6,4.6,6s5.6-1.7,6-4.6Z"/>
  <path d="M74.6,923.1c-8.4,65.7,38.2,125.8,103.9,134.2l-28.3,21.9c-2.2,1.9-2.5,5.3-.6,7.5,1.8,2.1,4.8,2.5,7.1.9l38.4-29.7c2.3-1.8,2.8-5.1,1-7.5,0,0,0,0,0,0l-29.7-38.4c-1.8-2.3-5.1-2.8-7.5-1-2.3,1.8-2.8,5.1-1,7.5h0l21.9,28.3c-59.9-7.6-102.3-62.4-94.7-122.3.4-2.9-1.7-5.6-4.6-6s-5.6,1.7-6,4.6Z"/>
  <path d="M639.9,2203.2c34.5,56.6,108.4,74.5,164.9,40l-8.5,34.8c-.5,2.9,1.3,5.7,4.2,6.2,2.7.5,5.3-1.1,6.1-3.7l11.5-47.2c.7-2.9-1.1-5.7-3.9-6.4,0,0,0,0,0,0l-47.2-11.5c-2.9-.7-5.7,1.1-6.4,3.9-.7,2.9,1.1,5.7,3.9,6.4h0l34.8,8.5c-51.6,31.4-118.9,15.2-150.3-36.4-1.5-2.5-4.8-3.3-7.3-1.8s-3.3,4.8-1.8,7.3Z"/>
  <text class="st0" transform="translate(877.9 229.2)"><tspan x="0" y="0">tip</tspan></text>
  <text class="st0" transform="translate(1245.6 1656.8)"><tspan x="0" y="0">blade</tspan></text>
  <text class="st0" transform="translate(17.8 905)"><tspan x="0" y="0">vein</tspan></text>
  <text class="st0" transform="translate(419 2214.9)"><tspan x="0" y="0">petoile</tspan></text> -->
  <!-- <text/> -->
</svg>