<?xml version="1.0" encoding="UTF-8"?>
<svg id="Layer_2" xmlns="http://www.w3.org/2000/svg" version="1.1" viewBox="0 0 1034.8 2290.7">

 <path id="petoile" myColor="#F58220" class="petoile" d="M506,1843.4c-2.4,4.7-5.2,9.2-8.3,13.6,8.9,22.3,18.6,44.3,29.2,65.8,29.1,58.9,65.1,114.7,109,163.8,22.1,24.7,45.7,48.2,70.1,70.6,24.9,22.8,51.1,44.3,79,63.4,27.5,18.8,56.7,35.4,87.6,48,9.7,3.9,19.4,7.9,29.2,11.7,10.7,4.3,21.9,8.3,33.4,9.8,9.1,1.2,20.2.9,26.5-6.8,6.2-7.6,5.9-17.3-.6-24.5-6.9-7.7-16.9-12.6-26.1-16.8-10.3-4.7-20.6-9.1-30.6-14.3-31.6-16.5-61.1-36.7-89.4-58.3-26.9-20.5-53-42.1-78-64.9-46.7-42.6-89.2-89.7-126.9-140.5-15.2-20.5-29.5-41.6-43.1-63.1-23.5-15.3-44.3-34.7-60.9-57.5h0,0Z"/>
 
 
  <path id="blade" myColor="#00A54F" class="blade-1" d="M684.6,791.7c-44.3,47.5-92.5,92-144.4,131.2-25.2,19-46.2,34.1-74.7,47.9-18.2,8.8-50.1,16.7-74.5,20.1.1,5.9.3,11.8.4,17.7,5.4,195.9,26.9,423.6,64,624.7,15.4-8.2,36.7-18.7,50.7-28.5,36.7-25.7,71.4-54.4,103.9-85.4,64.5-61.5,119.8-132.2,168.3-207.3h0c49-75.8,90.5-156.5,124.9-240.2,31-75.6,49.8-146.6,68-226.4.1.5.8,1.6,1.7,3.1-2.8-9.7-5.7-19.4-8.7-29-6.4-20.7-13.6-47.7-30-63.4-10,14.4-31.9,65.1-50,45.4-4.9-5.3-4.2-13.7-3.7-20.3.8-8.9,2.7-17.6,3.1-26.6,1.3-30.7-1.3-61.5-7.2-91.6-7.8-39.7-17.5-79.4-30.8-117.7-.5,1.3-16.3,41.8-33.4,73-34.6,63.1-78.6,120.8-127.6,173.4h0Z"/>
  <path id="blade" myColor="#00A54F" class="blade-2" d="M152.8,1165.9c32.8,38.9,69.7,73.8,109.9,105.2,40.2,31.4,82.9,59.7,125.2,88.4,3.7,2.5,7.3,1.9,10.9,4.4-21.9-147.8-38.5-293.7-38.4-442.1-30.4-18.7-58.8-51.8-81.4-77.9-12.7-14.7-24.9-29.9-37-45.1-12.5-15.6-24.8-31.7-36.2-48-22.8-32.4-43.8-66.3-62-101.1h0c-18.3-34.7-33.6-70-46.7-106.7-2.4-6.8-1.9-6-4.1-12.8-.6,1.8-1.3,3.6-1.9,5.5-8.4,24.5-15.6,49.4-21.8,74.6-10.7,43.2-18.5,87.1-24.6,131.1-5.6,40-9.2,80.6-6.9,121,1.1,19.9,3.9,39.9,9.1,59.2,2.2,8.2,5,16.2,8.2,24.1-3.4-4.4-6.8-8.7-10.4-12.9-.3-.8-.6-1.7-.9-2.5-.6,0-1.2-.4-1.9-1.2-2.8-3.3-4.5-6.9-6-10.9-1.5-4-2.7-8.7-6.5-11.2-6.4-4.1-8.6,12.9-9.4,16.5-1.3,5.8-2.5,11.5-3.7,17.3,14.6,36,31.8,70.9,51.4,104.5,24.7,42.5,53.2,82.9,85,120.6h0Z"/>
  <path id="blade" myColor="#00A54F" class="blade-3" d="M1028.8,1322.3c4.6-36.8,10.4-78-2.2-113.9-10.7,3.2-17,14.2-23.8,22.5-8,9.8-17,17-29.9,18-2.3.2-4-2.9-4-4.8-.2-9.1,4.1-16.6,7.5-24.8,3.7-9,5.8-18.8,7.5-28.3,3.9-21.2,6.1-42.8,8.5-64.2,4.3-37.8,7.3-75.9,6.9-114-.3-32.2-3.9-64.2-9.8-95.8-13.4,61.2-35.2,122.9-57.7,180.3-15.2,38.6-32.7,76.4-52.8,112.6-20.5,36.9-43.9,72.3-68,106.9-53.3,76.3-113.4,148-181.6,211-32,29.6-65.5,57.9-103.1,80-22.6,13.3-44.7,24.4-69.9,30.4,5.2,27.8,10.6,55.1,16.4,81.7,7.2,33.4,17.7,72.9,27,107.1-15.1-40.7-27.6-80.8-38.2-121.1-42.3-2.4-89.2-17.5-127.3-34.2-20.8-9.1-41.1-19.2-61.4-29.3-17-8.5-33.7-17.8-49.9-27.6-34.1-20.7-66.6-44.1-96.9-70.1h0c-27.5-23.6-53.2-49.4-76.2-77.4.7-.8.8-2.3,0-3.3-11.5-16-17.9-34.8-22.4-54.2,5.8,8.4,11.8,16.6,18,24.8,30.7,40.3,65.4,77.5,103.9,110.4,42.7,36.5,90.4,66.9,140,93.3,25.1,13.4,50.8,26,77.9,34.9,26.6,8.7,54,15.1,79.8,26,2.9,1.2,9.1,3.2,14,5-17.1-65.3-29.5-131.1-40.7-200.6-7.4-45.3-14.6-90.7-21.4-136.2-18.2-2-35.9-7.4-52.8-14.2-20.2-8.2-39.5-18.8-57.9-30.2-34.3-21.3-66.7-46-97-72.4-33-28.8-63.7-60-91.9-93.3h0c-29.2-34.6-55.8-71.5-77.7-110.9-5.6-10.2-11-20.5-15.9-31,.6-7.7,1.3-15.5,2-23.2-5,41.3-6.6,82.8-7.1,124.3-.5,43.1-.5,86.3,1.6,129.4,2.1,44.3,6.5,88.6,14.1,132.3,6.2,35.6,10,75.5,31.6,105.7,1.3,1.8.1,5-2.3,3.3-7.1-4.9-12.9-11.4-20.1-16.2-5.7,16.4-.6,34.5,1.3,51.2,2,17.6,3.3,35.2,6.1,52.7,2.8,16.9,7.5,33.2,14.1,48.9,6.5,15.4,14.6,30.2,24.2,43.9,9.4,13.4,22.6,23,33.4,35.1,1.2,1.3,2.5,5.9-.8,5.5-7-.8-22.7-10.5-27.8-2.6-3.7,5.7-.5,15,1.4,20.8,5.1,15.8,13.5,30.2,21.1,44.9,19.9,38.1,44,73.2,76.1,102.1,33.6,30.2,73.9,51,118.2,59.9,42.4,8.5,86.8,5.9,125.6-14.6,20.3-10.7,37.7-25.4,53.6-41.8,7-7.2,13.6-14.8,19.5-22.8,1-1.4,2-2.8,3-4.2,2-2.9,3.8-5.8,5.6-8.8,1.3-1,2.4-2.3,3.5-3.5,1.2.9,2.5,1.8,3.8,2.6-.2.4-.4.9-.6,1.3,15.4,20.3,33.9,38.2,55.3,52.4,2,1.3,4,2.6,6,3.9.8.5,1.6,1,2.5,1.5,55.7,33.7,122.2,39.7,185.9,33.2,60.1-6.1,123.2-25.8,161.6-75-15.6-2.6-32.8,1.9-48.2,3.1-15,1.2-32.3,1.1-42.9-11.3-.8-1-1.6-2.8,0-3.4,16.3-6,33.7-9.3,49.4-16.9,13.5-6.5,26.2-15.7,38-24.8,41.6-32.3,70.4-78,89.2-126.8,17.7-45.9,27.5-98.7,12.4-146.6-8.7,8-17,16.4-26.4,23.5-9.8,7.3-22.7,16.3-35.6,13.3-23.7-5.5-3.3-30.2,5.3-39.9,8.4-9.5,17.6-18.2,25.6-28h0c10.9-13.2,16-32.7,21-48.7,12.8-41.6,17.4-85.2,22.8-128.3h0Z"/>
  <path id="blade" myColor="#00A54F" class="blade-4" d="M93,530.2s0,0,0,0c.4-1,.7-2,1.1-3-.5,1.2-.9,2.3-1.1,2.9Z"/>
  <path id="blade" myColor="#00A54F"  class="blade-5" d="M845.6,545.3l-.2-.4c0,.1,0,.3.1.4,0,0,0,0,0,0Z"/>
  <path id="blade" myColor="#00A54F" class="blade-6" d="M16.4,940.8c-.3-.8-.6-1.6-1-2.4-2.1,11.3-4,22.7-5.4,34.1-.8,6.4-1.5,12.8-2.2,19.2,0-.4,0-.7.1-1.1,2.1-16.8,5-33.3,8.4-49.8h0Z"/>
  <path id="blade" myColor="#00A54F" class="blade-7" d="M989.6,917.1c2-9.2,3.9-18.5,5.5-27.7-1.8-12.4-16.9-32.8-22.1-40.8,5.4,18.7,10.3,37.6,14.3,56.6.8,4,1.6,7.9,2.3,11.9h0Z"/>
    <path  id="blade"  myColor="#F58220" class="blade-8" d="M662.2,762.1c-28.2,33.7-58.9,65.3-91.4,94.9-52.2,47.4-119.6,87.8-179.9,126.4-3.1-164.5,5.5-329.8,19.8-493.9,2.7-30.9,5.3-64.1,8.4-95.1,7.4-74.3,16.4-147.9,28-221.2h0c-11.5,73.3-20.6,146.9-28,221.2-3.1,31-5.7,64.2-8.4,95.2-14.3,164.1-22.9,329.3-19.8,493.9,60.3-38.6,127.7-78.9,179.9-126.4,32.5-29.6,63.2-61.2,91.4-94.9,29.2-35,55.5-72.3,79.7-110.9,22.5-35.8,51.3-91.7,68.4-126-17.2,34.2-46,90.2-68.4,125.9-24.2,38.6-50.5,75.9-79.7,110.9Z"/>
    <path id="blade" myColor="#00A54F" class="blade-9" d="M311.9,856.5c-7.7-8.2-15.5-16.4-23-24.9-7.4-8.5-14.3-17.4-21.1-26.4-29.2-38.9-56.9-79.3-81.6-121-23.6-39.8-44.7-80.6-63.1-122.7-9.3-21.2-9.7-40.2-17.6-61.8h0c-1.9,5.8-6.1,13.2-8.1,19.2,2-6,6.3-13.4,8.1-19.2,7.9,21.6,8.3,40.7,17.6,61.8,18.5,42.1,39.5,82.8,63.1,122.7,24.7,41.7,52.4,82.1,81.6,121,6.8,9,13.7,17.9,21.1,26.4,7.4,8.5,15.2,16.7,23,24.9,15.2,16.1,30.2,32.2,43.2,50.1,1.1,1.5,3.3,5.8,5.5,9.8,0,0,0,0,0,0-2.1-4.1-4.4-8.4-5.5-9.8-13-17.9-28-33.9-43.2-50.1Z"/>=
    <path id="blade" myColor="#00A54F" class="blade-10" d="M419,394.3c-3.1,31-5.7,64.2-8.4,95.1-14.3,164.1-22.9,329.3-19.8,493.9,60.3-38.6,127.7-78.9,179.9-126.4,32.5-29.6,63.2-61.2,91.4-94.9,29.2-35,55.5-72.3,79.7-110.9,22.4-35.8,51.3-91.7,68.4-125.9,9-17.9,14.8-29.9,14.8-29.9h0s0,0,0,0l20.3,49.6c-5.1-14.6-10.7-29-17-43.2-11.3-25.6-24.7-50-42.8-71.5-17.1-20.2-36.8-38.4-56.5-56.2-38-34.5-80.2-65.4-130.8-78,8.2,15.2,8,32.2,7.3,49.1,0,1.7-1.7,3.2-3.5,2.4-9.6-4.6-17.2-12.5-23.9-20.5-7.4-8.8-13.9-18.4-19.8-28.2-18.6-30.8-34.6-63.8-45.3-98.4l-66.2-27.4c-11.5,73.3-20.6,146.9-28,221.2Z"/>
    <path   id="blade"  myColor="#00A54F"  class="blade-11" d="M105.5,499.6h0c7.9,21.6,8.3,40.7,17.6,61.8,18.5,42.1,39.5,82.9,63.1,122.7,24.7,41.7,52.4,82.1,81.6,121,6.8,9,13.7,17.9,21.1,26.4,7.4,8.5,15.2,16.7,23,24.9,15.2,16.1,30.2,32.2,43.2,50.1,1,1.4,3.3,5.7,5.5,9.8,0-5.5,0-11,.1-16.5,2.9-233.7,24.9-470.3,72.2-698.1,2.2-10.4,4.5-20.9,7-31.6l-98-40.5c-44.1,48.6-81.3,103.8-109.2,163.2-10.3,21.9-19.1,44.4-26.6,67.4-.2-.4-.3-.9-.5-1.3-1.4,4.8-2.6,9.6-3.6,14.5-2.1,10.1-2.7,20.2-3.4,30.5-.3,4.5,0,14.4-5,16.8-6.9,3.3-12.7-10.2-14.5-14.5-3.8-9.4-5.5-19.4-9.2-28.8-1.7,1-3.4,2-5.1,3-.1.4-.2.8-.4,1.2-11.5,10.2-19.9,24.1-26.8,37.6-9.4,18.2-16.5,37.4-23.7,56.5-6.5,17.2-13.5,34.2-19.8,51.5,1-2.6,2.5-5.8,2.9-7.2.1-.4.2-.8.4-1.2,2-6,6.3-13.4,8.1-19.2Z"/>
  
  
    <path id="vien"  myColor="#744207"  class="vien" d="M987.2,905.2c-3.9-19.1-8.9-37.9-14.3-56.6-1-1.5-1.6-2.6-1.7-3.1-18.2,79.8-37,150.8-68,226.4-34.3,83.7-75.9,164.4-124.9,240.2-48.5,75.1-103.8,145.8-168.3,207.3-32.5,31-67.2,59.7-103.9,85.4-14,9.8-35.3,20.3-50.7,28.5-37-201.2-58.5-428.8-64-624.8-.1-5.9-.3-11.8-.4-17.7,24.4-3.3,56.3-11.3,74.4-20.1,28.5-13.8,49.5-28.9,74.7-47.9,51.8-39.2,100.1-83.8,144.4-131.2,49-52.6,93-110.2,127.6-173.4,17.1-31.2,32.9-71.8,33.4-73,0-.1,0-.3-.1-.4l-20.3-49.6c-.1.3-5.9,12.2-14.8,29.9-17.2,34.2-46,90.2-68.4,126-24.2,38.6-50.5,75.9-79.7,110.9-28.2,33.7-58.9,65.3-91.4,94.9-52.2,47.4-119.6,87.8-179.9,126.4-3.1-164.5,5.5-329.8,19.8-493.9,2.7-30.9,5.3-64.1,8.4-95.2,7.4-74.3,16.4-147.9,28-221.2l-7.2-3c-2.5,10.7-4.9,21.2-7,31.6-47.3,227.8-69.3,464.3-72.2,698.1,0,5.5-.1,11-.1,16.5,0,0,0,0,0,0,0,0,0,0,0,0-2.1-4.1-4.4-8.4-5.5-9.8-13-17.9-28-33.9-43.2-50.1-7.7-8.2-15.5-16.4-23-24.9-7.4-8.5-14.3-17.4-21.1-26.4-29.2-38.9-56.9-79.3-81.6-121-23.6-39.8-44.7-80.6-63.1-122.7-9.3-21.2-9.7-40.2-17.6-61.8-1.9,5.8-6.1,13.2-8.1,19.2-.1.4-.3.8-.4,1.2,0,0,0,0,0,0,0,0,0,0,0,0-.4,1.4-1.9,4.7-2.9,7.3-.4,1-.7,2-1.1,3,2.2,6.8,1.7,6,4.1,12.8,13.1,36.7,28.4,71.9,46.7,106.7h0c18.3,34.7,39.3,68.7,62,101.1,11.5,16.3,23.7,32.4,36.2,48,12.1,15.2,24.3,30.4,37,45.1,22.6,26.2,51,59.2,81.4,77.9-.1,148.4,16.4,294.3,38.4,442.1-3.7-2.5-7.2-1.9-10.9-4.4-42.3-28.7-85-57-125.2-88.4-40.3-31.4-77.1-66.3-109.9-105.2-31.8-37.7-60.3-78.2-85-120.6-19.6-33.6-36.8-68.5-51.4-104.5-3.4,16.5-6.3,33-8.4,49.8,0,.4,0,.7-.1,1.1-.8,7.7-1.5,15.5-2,23.2,5,10.5,10.3,20.9,15.9,31h0c21.9,39.4,48.4,76.3,77.6,110.8h0c28.2,33.3,58.9,64.5,91.9,93.3,30.3,26.5,62.7,51.1,97,72.4,18.5,11.5,37.7,22,57.9,30.2,16.9,6.9,34.6,12.3,52.8,14.2,6.8,45.5,14,90.9,21.4,136.2,11.2,69.6,23.6,135.3,40.7,200.6-4.9-1.8-11.1-3.8-14-5-25.8-10.9-53.2-17.2-79.8-26-27.1-8.9-52.8-21.5-77.9-34.9-49.5-26.3-97.3-56.8-140-93.3-38.5-32.9-73.2-70.1-103.9-110.4-6.2-8.1-12.1-16.4-18-24.8,4.5,19.4,10.9,38.2,22.4,54.2.8,1.1.6,2.6,0,3.3,23,28,48.7,53.8,76.2,77.4,30.3,26,62.8,49.4,96.9,70.1,16.3,9.9,32.9,19.1,49.9,27.6,20.3,10.1,40.6,20.2,61.4,29.3,38.1,16.7,85,31.8,127.3,34.2,10.6,40.3,23.1,80.4,38.2,121.1-9.3-34.1-19.8-73.6-27-107.1-5.8-26.6-11.2-53.9-16.4-81.7,25.3-6.1,47.3-17.2,69.9-30.4,37.6-22.1,71.1-50.4,103.1-80,68.2-62.9,128.3-134.7,181.6-211,24.1-34.6,47.5-70,68-106.9,20.1-36.2,37.6-74,52.8-112.6,22.5-57.4,44.3-119.2,57.7-180.3-.7-4-1.5-7.9-2.3-11.9Z"/>
    <path  id="tip"  myColor="#231F20"  class="tip" d="M502.8,156.5c-4.5-28.5-5.4-57.1-4.8-85.9h0c.5-23.6,2.1-47.1,3.5-70.6-24.5,14.1-48,30-70.4,47.3h0c-14.5,11.1-28.5,22.9-41.9,35.1-16.5,15-32.3,30.7-47.3,47.3l98,40.5h0s7.2,3,7.2,3h0s66.2,27.4,66.2,27.4c-4.5-14.4-8-29.1-10.4-44Z"/>
</svg>