<?xml version="1.0" encoding="UTF-8"?>
<svg id="Layer_2" data-name="Layer 2" xmlns="http://www.w3.org/2000/svg" viewBox="0 0 1034.96 2290.71">

    <!-- <path id="BLADE" class="cls-1" d="M1029.53,1322.33c4.64-36.77,10.42-78.04-2.22-113.9-10.71,3.15-17,14.24-23.75,22.53-7.95,9.76-16.97,16.98-29.89,18.02-2.28.18-3.97-2.89-4.01-4.75-.22-9.11,4.13-16.55,7.48-24.75,3.69-9.02,5.79-18.77,7.54-28.33,3.9-21.19,6.08-42.82,8.5-64.22,4.27-37.84,7.26-75.91,6.91-114.02-.34-36.19-4.82-72.31-12.13-107.73-5.98-28.97-14.23-57.42-22.98-85.66-6.41-20.69-13.58-47.73-30.04-63.38-10.05,14.43-31.91,65.09-49.97,45.39-4.89-5.33-4.24-13.65-3.66-20.3.78-8.91,2.69-17.64,3.07-26.59,1.29-30.7-1.29-61.47-7.24-91.61-10.86-55.02-25.19-109.89-47.94-161.29-11.35-25.65-24.65-50-42.84-71.48-17.14-20.24-36.83-38.39-56.45-56.18-38.04-34.49-80.17-65.39-130.78-77.95,8.21,15.25,8.04,32.18,7.31,49.09-.07,1.71-1.7,3.25-3.46,2.41-9.63-4.6-17.15-12.47-23.92-20.55-7.38-8.82-13.89-18.38-19.82-28.22-26.31-43.6-47.66-91.84-55.68-142.36-4.52-28.46-5.41-57.15-4.78-85.86l-66.98-23.34c-14.46,11.15-28.47,22.87-41.94,35.06-65.15,58.95-119.18,130.83-156.49,210.44-10.26,21.9-19.14,44.43-26.63,67.39-.16-.43-.33-.86-.49-1.29-1.35,4.81-2.6,9.64-3.61,14.53-2.1,10.12-2.72,20.21-3.44,30.48-.32,4.52-.04,14.36-5,16.76-6.9,3.34-12.73-10.17-14.48-14.45-3.84-9.37-5.46-19.38-9.16-28.77-1.7.99-3.41,1.98-5.09,3.01-.12.41-.24.82-.36,1.23-11.54,10.19-19.87,24.12-26.8,37.58-9.35,18.19-16.5,37.4-23.74,56.5-7.59,20.01-15.83,39.73-22.75,59.99-8.37,24.51-15.55,49.42-21.76,74.57-10.65,43.15-18.48,87.07-24.62,131.09-5.58,40.02-9.21,80.6-6.9,121.02,1.14,19.94,3.87,39.87,9.14,59.16,2.23,8.18,4.95,16.24,8.17,24.09-3.37-4.39-6.82-8.72-10.39-12.94-.28-.84-.6-1.66-.88-2.5-.57-.08-1.21-.39-1.88-1.16-2.83-3.26-4.5-6.87-5.98-10.9-1.47-3.99-2.69-8.69-6.49-11.16-6.35-4.11-8.59,12.92-9.4,16.53-4.99,22.26-9.36,44.47-12.15,67.13-5.11,41.61-6.69,83.53-7.19,125.42-.52,43.13-.46,86.3,1.59,129.39,2.12,44.34,6.47,88.56,14.12,132.31,6.23,35.59,9.99,75.53,31.6,105.72,1.29,1.8.11,5.02-2.32,3.35-7.13-4.9-12.91-11.45-20.13-16.19-5.67,16.37-.65,34.47,1.27,51.17,2.02,17.56,3.26,35.22,6.12,52.68,2.76,16.86,7.48,33.15,14.15,48.88,6.53,15.4,14.64,30.19,24.25,43.89,9.39,13.39,22.6,22.99,33.44,35.06,1.21,1.35,2.54,5.86-.83,5.46-7.04-.84-22.66-10.5-27.81-2.57-3.68,5.67-.46,15.03,1.39,20.76,5.11,15.79,13.47,30.24,21.11,44.88,19.89,38.09,44,73.21,76.14,102.09,33.58,30.18,73.89,51.03,118.21,59.95,42.44,8.54,86.82,5.91,125.58-14.59,20.28-10.73,37.71-25.42,53.62-41.82,7-7.21,13.63-14.76,19.53-22.8,1.01-1.38,2.01-2.77,2.98-4.18,1.96-2.86,3.84-5.77,5.58-8.76,1.3-1.04,2.44-2.27,3.52-3.52,1.25.94,2.55,1.79,3.81,2.57-.21.44-.39.9-.6,1.34,15.44,20.32,33.95,38.16,55.26,52.42,1.97,1.32,3.95,2.61,5.97,3.87.81.51,1.63.98,2.45,1.48,55.68,33.65,122.24,39.66,185.9,33.2,60.11-6.1,123.19-25.84,161.56-74.99-15.63-2.64-32.79,1.93-48.2,3.14-15.03,1.18-32.27,1.13-42.91-11.26-.82-.96-1.56-2.85.07-3.45,16.27-6,33.72-9.29,49.37-16.88,13.49-6.54,26.22-15.65,38.04-24.82,41.6-32.3,70.43-78.04,89.21-126.78,17.69-45.91,27.53-98.7,12.36-146.63-8.68,7.99-16.96,16.37-26.43,23.48-9.76,7.33-22.69,16.26-35.64,13.27-23.73-5.49-3.33-30.18,5.27-39.87,8.39-9.46,17.58-18.24,25.63-28h-.01c10.88-13.19,16.04-32.65,20.99-48.74,12.81-41.64,17.4-85.23,22.83-128.29Z"/>
    <path  id="PETOILE" class="cls-1" d="M506.69,1843.44c-2.41,4.72-5.2,9.24-8.26,13.62,8.89,22.29,18.59,44.26,29.23,65.8,29.12,58.94,65.11,114.71,108.96,163.8,22.07,24.7,45.65,48.23,70.07,70.59,24.93,22.82,51.13,44.31,79.03,63.41,27.5,18.83,56.67,35.41,87.57,47.98,9.7,3.94,19.42,7.86,29.15,11.73,10.73,4.27,21.86,8.3,33.37,9.81,9.11,1.19,20.19.93,26.51-6.84,6.22-7.65,5.91-17.27-.58-24.5-6.91-7.7-16.89-12.6-26.14-16.84-10.26-4.71-20.57-9.05-30.6-14.27-31.62-16.46-61.14-36.71-89.44-58.32-26.86-20.52-52.99-42.08-77.95-64.88-46.67-42.62-89.25-89.68-126.88-140.46-15.18-20.48-29.53-41.57-43.09-63.14-23.54-15.29-44.3-34.73-60.94-57.49h-.01Z"/>
  -->
        <path  id="VIEN"   d="M362.97,1684.85c-27.11-8.88-52.76-21.52-77.91-34.89-49.54-26.33-97.28-56.78-139.99-93.26-38.51-32.89-73.24-70.08-103.9-110.38-6.17-8.12-12.13-16.39-17.97-24.75,4.45,19.41,10.87,38.2,22.35,54.22.75,1.05.64,2.55-.04,3.32,23,28.04,48.74,53.81,76.25,77.41h0c30.29,25.99,62.79,49.4,96.9,70.1,16.27,9.87,32.92,19.12,49.94,27.63,20.28,10.13,40.6,20.2,61.37,29.29,39.59,17.33,81.73,31.65,125.25,33.08-4.1-2.06-8.23-4.03-12.46-5.81-25.82-10.88-53.23-17.25-79.79-25.96Z"/>
        <path  id="VIEN" d="M139.56,661.63h.03c18.28,34.74,39.27,68.7,62.03,101.07,11.47,16.31,23.73,32.4,36.22,48.01,12.12,15.16,24.35,30.38,37.03,45.07,23.67,27.42,49.3,52.75,81.34,70.82-1.79-2.78-3.48-5.54-5.43-8.23-12.99-17.9-27.96-33.92-43.18-50.06-7.72-8.19-15.55-16.41-22.96-24.92-7.4-8.51-14.33-17.39-21.1-26.42-29.16-38.94-56.87-79.33-81.58-121-23.62-39.83-44.65-80.6-63.11-122.68-9.28-21.16-17.21-41.92-25.11-63.49-1.99,6.19-4,12.31-5.85,18.52-.63,2.11-1.19,4.24-1.81,6.34,2.27,6.87,4.32,13.47,6.76,20.29,13.13,36.68,28.44,71.94,46.72,106.68Z"/>
        <path  id="VIEN" d="M461.25,982.65c28.47-13.78,49.5-28.85,74.69-47.9,51.82-39.18,100.09-83.75,144.37-131.22,49.04-52.58,93.01-110.24,127.61-173.37,17.37-31.7,39.13-95.27,39.13-95.27l-19.24-42.24h0s-55.95,115.88-90.16,170.38c-24.21,38.58-50.45,75.91-79.67,110.87-28.2,33.74-58.91,65.34-91.44,94.93-56.2,51.12-108.18,89.89-171.84,131.26,24.57-1.56,44.61-6.82,66.55-17.44Z"/>
        <path  id="VIEN" d="M977.19,847.74c-18.25,79.82-47.25,160.38-78.25,235.95-34.34,83.7-75.88,164.38-124.87,240.21h0c-48.49,75.08-103.76,145.77-168.3,207.28-32.52,30.99-67.16,59.74-103.89,85.44-14.42,10.09-28.99,19.81-44.5,28.08-3.9,2.08,1.71,1.01-2.19,3.08,26.86-5.82,43.13-14.18,66.84-28.09,37.58-22.05,71.1-50.42,103.13-79.97,68.2-62.92,128.34-134.7,181.6-210.96,24.14-34.57,47.52-69.97,68.01-106.92,20.1-36.25,37.63-73.97,52.79-112.61,25.92-66.1,50.94-137.9,63.21-207.98-2.13-14.79-12.87-50.36-13.59-53.51Z"/>
        <path  id="VIEN" d="M387.21,1020.36c-4.54-172.85,4.18-346.57,19.2-519.04,2.7-30.9,5.29-64.13,8.36-95.15,10.44-105.44,24.34-209.41,43.78-313.36-.96,3.69-2.77,9.97-3.67,13.32-9.45,35.07-19.06,72.5-26.32,107.46-47.27,227.75-69.35,464.34-72.2,698.08-1.9,156.01,15.33,312.1,38.34,467.24-3.68-2.51-7.36-5.02-11.05-7.53-42.29-28.71-84.97-56.97-125.21-88.4-40.27-31.45-77.12-66.33-109.92-105.2-31.82-37.72-60.26-78.16-85-120.62-20.01-34.34-37.58-70.05-52.37-106.83-2.13,11.31-3.98,22.67-5.43,34.14-1.78,14.08-3.12,28.2-4.19,42.35,4.95,10.52,10.27,20.87,15.91,31.02,21.87,39.42,48.41,76.33,77.65,110.86l-.02.02c28.16,33.27,58.93,64.49,91.89,93.28,30.3,26.47,62.7,51.12,97.03,72.43,18.48,11.47,37.71,21.99,57.94,30.24,16.85,6.87,34.56,12.26,52.77,14.25,6.75,45.51,13.99,90.93,21.4,136.25,18.25,113.15,39.49,216.29,79.38,323.7-9.31-34.12-19.77-73.63-27-107.07-47.68-220.35-75.04-486.76-81.27-711.44Z"/>
        <path  id="VIEN" d="M495.53,1839.02s-.01-.03-.03-.08c0,0,.02.05.03.08Z"/>
        <path  id="VIEN" d="M495.53,1839.02s0,.02,0,0h0Z"/>
        <path  id="VIEN" d="M495.48,1838.87s.01.04.02.07h.01s-.02-.04-.03-.07Z"/>

    <!-- <path id="TIP" class="cls-1" d="M502.24,0c-24.46,14.09-48.01,30.01-70.44,47.3l66.98,23.34c.52-23.57,2.06-47.15,3.46-70.64Z"/> -->
</svg>